<svg xmlns="http://www.w3.org/2000/svg" viewBox="0 0 48 48" width="48px" height="48px">
  <path fill="#FFC107" d="M43.6 20.4h-1.9V20H24v8h11.3C34.7 32.4 30 36 24 36c-6.6 0-12-5.4-12-12s5.4-12 12-12c3.1 0 5.9 1.2 8 3.1l6-6C34.5 6.2 29.5 4 24 4 12.9 4 4 12.9 4 24s8.9 20 20 20c11 0 20-9 20-20 0-1.3-.1-2.6-.4-3.6z"/>
  <path fill="#FF3D00" d="M6.3 14.7l6.6 4.8C14.1 16.1 18.7 14 24 14c3.1 0 5.9 1.2 8 3.1l6-6C34.5 6.2 29.5 4 24 4 16.3 4 9.4 8.4 6.3 14.7z"/>
  <path fill="#4CAF50" d="M24 44c5.5 0 10.5-2.1 14.3-5.7l-6.6-5.4C29.8 34.9 27 36 24 36c-6 0-10.7-3.6-12.6-8.6l-6.6 5.1C9.4 39.6 16.3 44 24 44z"/>
  <path fill="#1976D2" d="M43.6 20.4h-1.9V20H24v8h11.3c-1.3 3.4-4.3 6-8.3 6-6 0-10.7-4.9-10.7-11s4.7-11 10.7-11c2.7 0 5.2 1 7.1 2.6l5.3-5.3C34.5 6.2 29.5 4 24 4 12.9 4 4 12.9 4 24s8.9 20 20 20c11 0 20-9 20-20 0-1.3-.1-2.6-.4-3.6z"/>
</svg>
